<?xml version="1.0" encoding="utf-8"?>
<!-- Generator: Adobe Illustrator 26.3.1, SVG Export Plug-In . SVG Version: 6.00 Build 0)  -->
<svg version="1.1" id="Layer_1" xmlns="http://www.w3.org/2000/svg" xmlns:xlink="http://www.w3.org/1999/xlink" x="0px" y="0px"
	 viewBox="0 0 848.3 469.6" enable-background="new 0 0 848.3 469.6" xml:space="preserve">
<g>
	<g>
		<path fill="#FFFFFF" d="M456.6,223.9c-1.2,1.5-3,2.4-4.9,2.6c-5.2,0.3-10.6,0.7-16.2,1.1c-43.5,3.1-59.6,3.8-63.6,4l0,0h-0.4
			c-1.2,4.1-6,22.7-2.2,47.3c2.3,15.3,12.1,22.3,29.2,20.9c1.7-0.1,3.4-0.5,5-1.1c0.3-0.1,0.6-0.2,0.8-0.3
			c7.4-3,12.4-10.3,14.1-12.7c0.4-0.5,0.8-0.9,1.4-1.1c0.3-0.2,0.8-0.3,1.3-0.2c1.1,0.1,2,0.7,2.4,1.9c1.3,3.5-2.2,11.9-9.2,18.2
			c-2.6,2.4-5.7,4.3-9.1,5.7c-0.8,0.4-1.6,0.7-2.5,1c-3.3,1.1-6.9,1.8-10.6,2c-0.7,0.1-1.5,0.1-2.3,0.1c-8.4,0-16.4-2.6-23.1-7.7
			l-0.1-0.1c-17.1-11.7-16.7-33.4-16.5-40.5c0.3-11.8,2.8-29.8,3.6-35.1l-31.5-1.2c-3.2-0.2-12.1-2.1-15.5-8.2
			c-1.5-2.7-2.3-5.9-2.4-9.3c0-0.9,0.5-1.8,1.3-2.3c0.8-0.4,1.7-0.4,2.4,0c2,1.1,9.5,4.9,20.6,5.8c5.6,0.4,15.8,0.6,28.7,0.3
			l17.9-54.1c0.6-1.8,2-3.3,3.7-4.1c0.1-0.1,0.2-0.1,0.3-0.1c1.4-0.5,2.8-0.6,4.2-0.1l3.6,1.1c3.5,1.1,5.5,4.8,4.4,8.3l-16,48.8
			c5.6-0.4,22.5-1.5,42.6-2.9l8.2-0.5c4-0.3,6.7-0.4,14.2-0.9c0.5,0,0.9,0,1.2,0c10,0.2,15.5,3,16.4,8.2v0.2
			C458.2,220.7,457.7,222.5,456.6,223.9z"/>
	</g>
	<path fill="#FFFFFF" d="M394.8,325.5l-151.6-1L276.5,24c0.8-7.5-5.1-14.1-12.6-14.1c-2.5,0-4.8,0.7-6.8,2s-3.6,3.1-4.7,5.3
		L108.6,323.6l-33.3-0.2H16.2c-1.7,0-3.3,0.7-4.4,1.8c-1.1,1.1-1.8,2.7-1.8,4.4c0,3.4,2.7,6.1,6,6.2l85.4,2.9l-31.2,66.5
		c-0.8,1.6-0.1,3.6,1.6,4.4c0.5,0.2,0.9,0.3,1.4,0.3c1.2,0,2.3-0.6,2.9-1.8l36.6-69l116.9,4l-9.1,112.4c-0.2,2.3,1.6,4.3,4,4.3
		c1,0,2-0.4,2.7-1s1.2-1.5,1.3-2.5L241,343.4l153.3,5.3c9.3,0.4,14.3-5.1,14.3-11.7C408.7,330.6,404.8,325.2,394.8,325.5z
		 M231.1,324.4l-110.2-0.7L249.1,81.6L231.1,324.4z"/>
	<path fill="#FFFFFF" d="M292.7,248.8v-14.2c0-3.1-2.5-5.6-5.6-5.6H280c-2.9,0-5.3,2.2-5.5,5.1l-5.8,69.4c-0.5,5.7,4,10.6,9.7,10.6
		l0,0c5.3,0,9.7-4.2,9.8-9.6l0.5-21.4c0.1-4.5,1.6-8.8,4.2-12.4c5.2-7.1,16.8-17.9,42-26.5c1.6-0.6,3.7-2.2,3.4-3.9
		c-0.4-2.3-1.4-5.1-14.3-3.9C306.8,238.3,292.7,248.8,292.7,248.8z"/>
	<rect x="181.9" y="246.5" fill="#FFFFFF" width="12.2" height="20.5"/>
	<rect x="199.1" y="246.5" fill="#FFFFFF" width="12.2" height="20.5"/>
	<rect x="181.9" y="271" fill="#FFFFFF" width="12.2" height="20.5"/>
	<rect x="199.1" y="271" fill="#FFFFFF" width="12.2" height="20.5"/>
	<path fill="#FFFFFF" d="M412.8,322.2c-0.9,0.5-1.1,1.7-0.5,2.4c2.1,2.7,6,9,3.8,16.8c-1.9,6.6-4.9,9.2-6.8,10.1
		c-0.8,0.4-0.9,1.4-0.2,1.9c4,3,15,9.7,30.4,5.5c18.9-5.2,34.7-27.7,26.1-41.8c-0.4-0.6-1.3-0.5-1.5,0.2c-0.5,1.6-1.6,4.1-3.5,5.9
		c-2.8,2.6-6.2,3.9-11.2,1.5C439.8,320.2,428.4,313,412.8,322.2z"/>
	<g>
		<path fill="#FFFFFF" d="M485.1,230.5h15.6v30.7h27.5v-30.7h15.6v81.6h-15.6v-35.7h-27.5v35.7h-15.6V230.5z"/>
		<path fill="#FFFFFF" d="M643.3,271.5c0,24-18.8,42.5-42.2,42.5c-24.2,0-42.7-19.1-42.7-42.9c0-24.2,19.3-42.7,42.5-42.7
			C623.4,228.4,643.3,246.6,643.3,271.5z M574,271.5c0,16.6,12.5,27.6,26.9,27.6c14.8,0,26.6-12.2,26.6-27.7
			c0-15-11.3-28.1-26.8-28.1C586.1,243.3,574,254.7,574,271.5z"/>
		<path fill="#FFFFFF" d="M657.2,230.5h15.6v55.2c0,8.9,4.3,13.4,11.8,13.4c4.4,0,8.4-1.8,10.3-4.9c1.7-2.6,1.9-6.4,1.9-10.7v-53.1
			h15.6v52c0,9-0.5,15.8-6.6,23c-5.2,6-12,8.6-20.9,8.6c-8.4,0-15.1-2.4-20.2-7.7c-6.6-6.8-7.5-14.2-7.5-24.8L657.2,230.5
			L657.2,230.5z"/>
		<path fill="#FFFFFF" d="M736.6,288.5c3.8,7,8.1,10.7,13.5,10.7c5.2,0,9.4-3.4,9.4-7.6c0-3-1.9-6.4-5.2-9.1
			c-16.9-14.2-26.9-21.9-26.9-33.5c0-11.6,10.1-20.6,22.4-20.6c10.3,0,17.2,5.6,23.6,13.1l-11.6,10.2c-3.9-5.5-7.8-8.4-12.3-8.4
			c-4.1,0-6.9,2.4-6.9,5.7c0,3.2,2.4,5.2,4.8,7.3c15.2,13.4,27.4,19.8,27.4,34.7c0,13.6-10.2,23.2-25,23.2
			c-11.9,0-20.2-5.8-26.3-17.7L736.6,288.5z"/>
		<path fill="#FFFFFF" d="M789.8,230.5h44.6v15.2h-29v14.5h29v15.2h-29v21.4h29V312h-44.6V230.5z"/>
	</g>
</g>
</svg>
